<svg width="24" height="24" viewBox="0 0 24 24" xmlns="http://www.w3.org/2000/svg" fill="currentColor"><path d="M5.5252 11.9698C5.16319 12.3318 4.96573 12.7816 4.91088 13.2533L10.9554 15.8423L20.269 6.53964C21.1247 5.673 21.1247 4.29077 20.269 3.4351L18.7113 1.87735C17.8556 1.02168 16.4734 1.02168 15.6067 1.87735L5.5252 11.9698ZM3.08984 16.4566V22.7644L9.46347 17.038L3.97842 14.844L3.08984 16.4566ZM16.3856 4.20301C16.8025 3.77517 17.5155 3.77517 17.9434 4.20301C18.3712 4.64181 18.3712 5.33293 17.9434 5.76076C17.5155 6.18859 16.8025 6.18859 16.3856 5.76076C15.9578 5.33293 15.9578 4.64181 16.3856 4.20301Z"/></svg>