<svg width="24" height="24" viewBox="0 0 24 24" xmlns="http://www.w3.org/2000/svg" fill="currentColor"><path fill-rule="evenodd" clip-rule="evenodd" d="M11.4487 7.01838C11.9332 6.29918 12.7645 5.75734 14.0111 5.39466C15.1671 5.05839 16.7191 4.86383 18.7768 4.83778C18.9882 3.89574 19.8296 3.19189 20.8354 3.19189C22.0007 3.19189 22.9453 4.13651 22.9453 5.30176C22.9453 6.467 22.0007 7.41162 20.8354 7.41162C19.8554 7.41162 19.0314 6.74337 18.7942 5.83764C16.7824 5.86285 15.3283 6.05288 14.2906 6.35476C13.1765 6.67885 12.5873 7.11843 12.2785 7.57655C11.9711 8.03277 11.8878 8.58749 11.9551 9.25915C12.0232 9.93976 12.2375 10.6779 12.4711 11.4737L12.4809 11.5072C12.7054 12.2717 12.946 13.0911 13.024 13.8708C13.1041 14.6709 13.0208 15.4898 12.5351 16.2109C12.0505 16.9302 11.2193 17.472 9.97264 17.8347C8.81234 18.1722 7.25313 18.3669 5.18396 18.3918C4.94902 19.3008 4.12347 19.9721 3.14111 19.9721C1.97587 19.9721 1.03125 19.0275 1.03125 17.8623C1.03125 16.697 1.97587 15.7524 3.14111 15.7524C4.14456 15.7524 4.9844 16.4529 5.19828 17.3916C7.20558 17.3659 8.65693 17.176 9.6932 16.8746C10.8073 16.5505 11.3965 16.1109 11.7053 15.6528C12.0127 15.1966 12.0959 14.6418 12.0287 13.9702C11.9606 13.2895 11.7462 12.5514 11.5126 11.7556L11.5029 11.7224C11.2784 10.9578 11.0378 10.1383 10.9597 9.35848C10.8797 8.55851 10.963 7.73947 11.4487 7.01838ZM20.835 6.44116C21.4643 6.44116 21.9744 5.93103 21.9744 5.30176C21.9744 4.67248 21.4643 4.16235 20.835 4.16235C20.2058 4.16235 19.6956 4.67248 19.6956 5.30176C19.6956 5.93103 20.2058 6.44116 20.835 6.44116ZM3.1407 19.0017C3.76998 19.0017 4.28011 18.4915 4.28011 17.8623C4.28011 17.233 3.76998 16.7229 3.1407 16.7229C2.51143 16.7229 2.0013 17.233 2.0013 17.8623C2.0013 18.4915 2.51143 19.0017 3.1407 19.0017Z"/></svg>