<svg width="24" height="24" viewBox="0 0 24 24" xmlns="http://www.w3.org/2000/svg" fill="currentColor"><path fill-rule="evenodd" clip-rule="evenodd" d="M12 22C7.58169 22 3.99997 20.433 3.99997 18.5V11.5C3.99997 10.6083 4.76222 9.79443 6.0172 9.17639L0.485352 5.85777L0.999791 5.00024L7.1784 8.70686C8.51913 8.26317 10.1893 8 12 8C13.8107 8 15.481 8.2632 16.8218 8.70693L23 5L23.5145 5.85749L17.9829 9.17645C19.2378 9.79449 20 10.6083 20 11.5V18.5C20 20.433 16.4182 22 12 22ZM18.558 10.9577C18.8207 11.2295 18.8571 11.4113 18.8571 11.5C18.8571 11.5887 18.8207 11.7705 18.558 12.0423C18.2902 12.3194 17.8456 12.6229 17.2064 12.9025C15.9322 13.46 14.0922 13.8333 12 13.8333C9.90769 13.8333 8.06775 13.46 6.79349 12.9025C6.15433 12.6229 5.70977 12.3194 5.44193 12.0423C5.17924 11.7705 5.14282 11.5887 5.14282 11.5C5.14282 11.4113 5.17924 11.2295 5.44193 10.9577C5.70977 10.6806 6.15433 10.3771 6.79349 10.0975C6.93807 10.0342 7.08993 9.97336 7.24862 9.91513L10.4859 11.8572L11.0004 10.9997L8.5558 9.53318C9.56596 9.30272 10.737 9.16667 12 9.16667C13.2631 9.16667 14.4343 9.30275 15.4445 9.53327L12.9998 11.0001L13.5143 11.8576L16.7516 9.91523C16.9102 9.97343 17.0619 10.0343 17.2064 10.0975C17.8456 10.3771 18.2902 10.6806 18.558 10.9577ZM5.44193 19.0423C5.17924 18.7705 5.14282 18.5887 5.14282 18.5V13.3038C5.72507 13.7265 6.50579 14.0911 7.42854 14.3727L7.42854 20.1488C7.20394 20.0716 6.99186 19.9893 6.79349 19.9025C6.15433 19.6229 5.70977 19.3194 5.44193 19.0423ZM18.558 19.0423C18.2902 19.3194 17.8456 19.6229 17.2064 19.9025C17.0081 19.9893 16.796 20.0716 16.5714 20.1488V14.3727C17.4941 14.0911 18.2749 13.7265 18.8571 13.3038V18.5C18.8571 18.5887 18.8207 18.7705 18.558 19.0423ZM12.5714 14.9912L12.5714 20.824C13.6102 20.7898 14.5763 20.6637 15.4285 20.4704V14.6632C14.5521 14.8453 13.588 14.9598 12.5714 14.9912ZM11.4285 14.9912L11.4285 20.824C10.3897 20.7898 9.42363 20.6637 8.5714 20.4704V14.6632C9.44782 14.8453 10.412 14.9598 11.4285 14.9912Z"/></svg>