<svg width="24" height="24" viewBox="0 0 24 24" xmlns="http://www.w3.org/2000/svg" fill="currentColor"><path d="M11.4184 15.3794L12.4992 15.8423L21.8128 6.53964C22.6684 5.673 22.6684 4.29077 21.8128 3.4351L20.255 1.87735C19.6275 1.24981 18.7167 1.0825 17.9338 1.37542C18.2171 1.48191 18.4826 1.64922 18.7108 1.87735L20.2685 3.4351C21.1242 4.29077 21.1242 5.673 20.2685 6.53964L11.4184 15.3794Z"/><path d="M4.6336 21.377V22.7644L11.0072 17.038L5.52218 14.844L5.24329 15.3501L9.46298 17.038L4.6336 21.377Z"/><path d="M3.98028 11.9698C3.61827 12.3318 3.42081 12.7816 3.36596 13.2533L9.41048 15.8423L18.7241 6.53964C19.5798 5.673 19.5798 4.29077 18.7241 3.4351L17.1663 1.87735C16.3107 1.02168 14.9284 1.02168 14.0618 1.87735L3.98028 11.9698ZM1.54492 16.4566V22.7644L7.91855 17.038L2.4335 14.844L1.54492 16.4566ZM14.8407 4.20301C15.2575 3.77517 15.9706 3.77517 16.3984 4.20301C16.8263 4.64181 16.8263 5.33293 16.3984 5.76076C15.9706 6.18859 15.2575 6.18859 14.8407 5.76076C14.4128 5.33293 14.4128 4.64181 14.8407 4.20301Z"/></svg>