<svg width="24" height="24" viewBox="0 0 24 24" xmlns="http://www.w3.org/2000/svg" fill="currentColor"><path fill-rule="evenodd" clip-rule="evenodd" d="M22.9453 5.30176C22.9453 6.467 22.0007 7.41162 20.8354 7.41162C20.7899 7.41162 20.7448 7.41018 20.7 7.40734L17.6551 18.1948L7.62697 6.31799L4.31856 16.1113C4.88102 16.4903 5.25098 17.1331 5.25098 17.8623C5.25098 19.0275 4.30636 19.9722 3.14111 19.9722C1.97587 19.9722 1.03125 19.0275 1.03125 17.8623C1.03125 16.6971 1.97587 15.7524 3.14111 15.7524C3.22203 15.7524 3.30189 15.757 3.38044 15.7659L7.24668 4.31715L17.2033 16.1112L19.7457 7.10876C19.1343 6.73926 18.7256 6.06824 18.7256 5.30176C18.7256 4.13651 19.6702 3.19189 20.8354 3.19189C22.0007 3.19189 22.9453 4.13651 22.9453 5.30176ZM20.835 6.44116C21.4643 6.44116 21.9744 5.93103 21.9744 5.30176C21.9744 4.67248 21.4643 4.16235 20.835 4.16235C20.2058 4.16235 19.6956 4.67248 19.6956 5.30176C19.6956 5.93103 20.2058 6.44116 20.835 6.44116ZM3.1407 19.0017C3.76998 19.0017 4.28011 18.4916 4.28011 17.8623C4.28011 17.233 3.76998 16.7229 3.1407 16.7229C2.51143 16.7229 2.0013 17.233 2.0013 17.8623C2.0013 18.4916 2.51143 19.0017 3.1407 19.0017Z"/></svg>